HIERARCHY
ROOT Hips
{
  OFFSET 155.048 98.1286 3.93448
  CHANNELS 6 Xposition Yposition Zposition Zrotation Xrotation Yrotation
  JOINT RightUpLeg
  {
    OFFSET -8.9458 -8.66707 0.101652
    CHANNELS 3 Zrotation Xrotation Yrotation
    JOINT RightLeg
    {
      OFFSET 0 -44.4227 1.3727
      CHANNELS 3 Zrotation Xrotation Yrotation
      JOINT RightFoot
      {
        OFFSET 0.253549 -42.0924 -1.46059
        CHANNELS 3 Zrotation Xrotation Yrotation
        JOINT RightToes
        {
          OFFSET 0.04 -4.41509 8.4991
          CHANNELS 3 Zrotation Xrotation Yrotation
          End Site
          {
            OFFSET -0.08 -0.137448 9.77979
          }
        }
      }
    }
  }
  JOINT Spine
  {
    OFFSET 0 11.8905 0
    CHANNELS 3 Zrotation Xrotation Yrotation
    JOINT Spine1
    {
      OFFSET 0 25.6574 0.127663
      CHANNELS 3 Zrotation Xrotation Yrotation
      JOINT Head
      {
        OFFSET 0 8.73416 0.011341
        CHANNELS 3 Zrotation Xrotation Yrotation
        End Site
        {
          OFFSET -0.29 12.7742 2.51395
        }
      }
      JOINT LeftShoulder1
      {
        OFFSET 8.99 -0.362252 -0.22
        CHANNELS 3 Zrotation Xrotation Yrotation
        JOINT LeftArm
        {
          OFFSET 10.2827 -0.00337999 0.322123
          CHANNELS 3 Zrotation Xrotation Yrotation
          JOINT LeftForeArm
          {
            OFFSET 26.2597 0.099144 -1.42434
            CHANNELS 3 Zrotation Xrotation Yrotation
            JOINT LeftHand
            {
              OFFSET 22.0902 0.085362 1.02216
              CHANNELS 3 Zrotation Xrotation Yrotation
              End Site
              {
                OFFSET 13.419 -0.6 1.50291
              }
            }
          }
        }
      }
      JOINT RightShoulder
      {
        OFFSET -8.99 -0.362252 -0.22
        CHANNELS 3 Zrotation Xrotation Yrotation
        JOINT RightArm
        {
          OFFSET -10.2827 -0.00338 0.322123
          CHANNELS 3 Zrotation Xrotation Yrotation
          JOINT RightForeArm
          {
            OFFSET -26.364 0.099144 -1.42434
            CHANNELS 3 Zrotation Xrotation Yrotation
            JOINT RightHand
            {
              OFFSET -22.0324 0.085362 1.02216
              CHANNELS 3 Zrotation Xrotation Yrotation
              End Site
              {
                OFFSET -13.3284 -0.6 1.50291
              }
            }
          }
        }
      }
    }
  }
  JOINT LeftUpLeg
  {
    OFFSET 8.9458 -8.66707 0.101652
    CHANNELS 3 Zrotation Xrotation Yrotation
    JOINT LeftLeg
    {
      OFFSET 0 -44.4227 1.3727
      CHANNELS 3 Zrotation Xrotation Yrotation
      JOINT LeftFoot
      {
        OFFSET -0.253549 -42.0924 -1.46059
        CHANNELS 3 Zrotation Xrotation Yrotation
        JOINT LeftToes
        {
          OFFSET -0.04 -4.41509 8.4991
          CHANNELS 3 Zrotation Xrotation Yrotation
          End Site
          {
            OFFSET 0.08 -0.047448 9.77979
          }
        }
      }
    }
  }
}
MOTION
Frames:	19
Frame Time:	0.0333333
13.6828 91.3391 10.0378 9.8472 -0.593923 -96.355 -5.75163 -24.8087 -9.03045 -2.90553 74.913 -10.8456 8.48338 -23.6534 0.947155 0.0462048 0.00053089 0.662642 -4.34224 24.0855 8.61671 -10.9791 8.65142 10.9046 3.47497 -25.7548 -22.5578 -37.0685 8.72747 -16.5322 -40.6056 -32.2017 2.90525 -13.6446 42.2715 -2.61775 20.4839 9.35997 2.3939 48.1972 13.0405 19.4894 27.1755 -27.4001 10.0389 -17.5376 33.7334 59.8785 -19.6607 7.83681 7.17535 -8.4205 -43.6332 -4.32773 1.3671 53.8238 13.9409 2.18965 -15.5183 0.224256 -1.31974e-009 8.75232e-006 -1.46399e-008 
12.1717 94.3128 11.3035 10.2819 1.21763 -98.048 -5.53513 -27.2807 -9.10116 -2.30516 70.4359 -11.7854 9.01868 -23.0336 0.97695 0.0462048 0.00053089 0.662642 -2.80488 23.222 7.17182 -10.0212 8.44495 9.51799 4.61631 -25.0508 -18.4656 -36.8178 8.57376 -16.3018 -38.6827 -8.21385 -0.75188 -6.58372 15.7079 -22.3705 25.6212 8.81411 0.412789 47.0387 12.5869 19.2168 25.3762 -35.5146 7.88915 -9.22904 31.9619 46.8488 -21.7577 7.61381 7.1044 -4.83167 -40.3659 -1.05666 1.18026 48.5001 12.3944 1.21681 -12.3546 0.133119 -1.31974e-009 8.75232e-006 -1.46399e-008 
10.6429 97.2432 12.3762 10.8089 3.02244 -100.051 -4.85196 -28.4954 -9.29608 -1.73582 63.8946 -11.3847 9.99855 -22.1522 1.03717 0.0462048 0.00053089 0.662642 -1.09816 22.0036 6.12213 -10.008 8.58555 8.80441 6.0195 -24.1633 -14.9024 -36.7581 8.55437 -16.2855 -32.0514 -16.1387 -3.03867 -2.35295 21.7787 -35.3454 26.6909 8.29083 -1.68241 46.3413 12.2374 18.9032 23.4897 -42.9859 5.98656 -1.12762 26.0064 36.6211 -22.5021 7.63935 6.53243 -0.627924 -38.58 2.24901 0.824218 45.4036 8.47464 -5.14404 -5.24873 0.167377 -1.31974e-009 8.75232e-006 -1.46399e-008 
9.09582 99.3152 13.2631 10.818 4.80632 -101.598 -4.38662 -28.0752 -9.95726 -1.22835 57.3821 -9.14354 11.7753 -21.4107 1.19584 0.0462048 0.00053089 0.662642 0.340545 20.7065 5.38429 -9.68069 9.23915 8.20506 7.51157 -23.2033 -11.9516 -36.12 8.41565 -16.2662 -26.4779 -20.8047 -7.39261 -1.20819 23.3241 -43.6095 26.5009 8.10135 -2.56542 45.7297 11.8776 18.5191 20.5118 -47.5928 3.06596 3.69927 20.021 31.3438 -22.933 7.78319 5.5488 3.74529 -38.3281 5.06632 0.85856 47.0375 6.72893 -12.303 0.428004 0.809238 -1.31974e-009 8.75232e-006 -1.46399e-008 
7.61645 100.463 14.0618 10.2497 6.23392 -102.422 -4.81285 -26.5278 -10.816 -0.915275 52.0871 -7.0038 12.7514 -20.7733 1.24775 0.0462048 0.00053089 0.662642 0.328584 19.4906 4.91266 -8.05211 10.0059 7.27441 8.84163 -22.4038 -9.49247 -35.0488 8.07279 -15.9696 -23.9325 -23.9858 -13.6253 -2.85484 21.9984 -45.5546 26.6959 8.11331 -2.4514 44.853 11.4019 18.0247 16.033 -48.4071 -1.46224 5.01232 17.947 29.8013 -21.9095 8.01786 4.81632 6.85004 -38.2375 5.2749 1.05225 49.2211 11.6403 -13.5915 -2.04992 0.694246 -1.31974e-009 8.75232e-006 -1.46399e-008 
6.05963 100.915 14.7596 9.71299 6.65557 -103.165 -6.33503 -24.6941 -11.0017 -0.839196 47.9662 -7.04019 12.1472 -20.1609 1.11083 0.0462048 0.00053089 0.662642 -2.20434 18.0519 4.70728 -5.59043 10.1911 6.08984 9.87925 -21.2393 -7.14562 -34.3281 7.7032 -15.4242 -24.7392 -27.7669 -19.5152 -4.23687 20.8129 -44.6471 27.0057 8.06518 -2.56487 43.9448 10.9259 17.5226 10.389 -46.8129 -7.11493 3.66151 19.9598 30.3825 -17.7962 8.40184 4.77452 7.77965 -37.0864 1.41457 1.29969 45.393 19.556 -9.75327 -9.23071 -0.0923796 -1.31974e-009 8.75232e-006 -1.46399e-008 
4.17776 100.079 15.4268 9.36966 6.7131 -104.375 -8.11535 -23.1217 -9.74245 -0.914101 45.9389 -8.77301 11.2192 -19.9726 0.98734 0.0462048 0.00053089 0.662642 -5.23721 16.4353 4.4904 -2.90061 9.21785 4.76798 10.538 -19.0968 -4.6577 -34.1558 7.40734 -14.7851 -27.4391 -31.6347 -23.619 -3.94303 20.9936 -43.8678 26.9977 8.0184 -2.77077 43.0544 10.5357 17.1568 4.60356 -44.7635 -12.9631 1.77307 22.6471 31.7049 -12.0245 8.87626 5.16239 8.28667 -34.8932 -4.5435 1.46881 37.6475 23.1279 -7.65402 -13.1527 -0.316989 -1.31974e-009 8.75232e-006 -1.46399e-008 
2.26456 98.1416 16.126 8.31322 6.38479 -105.32 -10.1179 -21.2737 -6.4196 -0.993737 45.7893 -10.5383 10.7959 -19.8643 0.930638 0.0462048 0.00053089 0.662642 -7.87495 15.578 3.9963 -0.925318 7.7648 3.39477 10.7442 -16.8921 -2.38674 -34.0079 7.14483 -14.2102 -30.2057 -33.6085 -26.7204 -3.34624 21.4681 -43.266 26.9338 8.1017 -2.42834 41.9181 10.1573 16.9063 -0.309053 -43.6346 -18.1369 1.31404 23.2631 32.5552 -7.94898 9.25156 5.13849 8.17358 -33.7147 -7.05589 1.16932 34.9231 20.6574 -8.45323 -11.391 -0.230794 -1.31974e-009 8.75232e-006 -1.46399e-008 
0.747952 96.025 16.8729 6.03457 5.60769 -105.527 -11.9182 -18.6692 -0.690341 -1.03752 46.2606 -11.3384 10.0938 -19.6929 0.838052 0.0462048 0.00053089 0.662642 -10.1309 15.7031 3.49256 -0.243067 7.41901 2.31574 10.5567 -16.2402 -1.01315 -33.674 6.98672 -13.9691 -32.4526 -32.9015 -30.1163 -3.83893 20.913 -41.7526 26.833 8.20303 -2.015 40.9447 9.83518 16.6828 -4.5823 -44.2939 -22.197 2.32579 21.9383 32.3425 -7.89391 9.28387 4.71512 6.76341 -34.4462 -3.87817 1.15372 40.5117 15.8629 -6.34988 -9.43793 -0.0527809 -1.31974e-009 8.75232e-006 -1.46399e-008 
-0.576305 94.1953 17.6926 3.49455 5.17484 -106.121 -12.2504 -16.3535 6.43048 -1.03829 47.2109 -11.0292 8.91013 -20.1084 0.740495 0.0462048 0.00053089 0.662642 -11.079 15.6533 3.43957 -0.261312 8.77748 2.00956 10.0827 -16.9615 -0.623 -33.6214 7.07296 -14.204 -34.0978 -30.7944 -33.0604 -5.08906 19.4999 -39.7562 26.3284 8.21621 -2.1095 41.0416 9.76464 16.494 -8.77869 -46.6128 -24.9024 3.95923 19.6258 30.9664 -11.4567 8.98358 4.55473 4.8885 -34.8985 -1.90351 1.38811 48.1101 16.2695 -2.42352 -11.2518 -0.0199868 -1.31974e-009 8.75232e-006 -1.46399e-008 
-1.92755 93.136 18.4133 1.87811 5.20439 -108.05 -11.0301 -15.6283 12.0902 -1.00419 48.3294 -9.90127 8.28229 -20.7453 0.715337 0.0462048 0.00053089 0.662642 -11.2528 14.7312 3.79741 -0.477198 10.4743 2.40911 9.5938 -17.3291 -0.343708 -34.2027 7.33792 -14.5944 -34.785 -28.6267 -33.4263 -6.23556 18.1201 -38.377 25.4015 8.23744 -2.30127 42.1936 9.99637 16.4604 -11.6655 -49.234 -25.7149 5.81398 16.5219 28.7361 -15.945 8.58512 4.62138 3.46066 -34.0599 -2.70254 1.58277 52.1128 19.6317 -1.58108 -14.6593 -0.0318984 -1.31974e-009 8.75232e-006 -1.46399e-008 
-3.2148 93.0935 18.9912 1.53496 5.28026 -110.734 -9.23017 -16.6676 13.6454 -0.956885 48.9306 -8.67562 8.88368 -20.8057 0.789815 0.0462048 0.00053089 0.662642 -11.404 13.3677 4.03876 -0.429992 10.8631 2.76113 9.49794 -16.7043 0.705245 -35.1067 7.5436 -14.6872 -34.3342 -26.3546 -30.5163 -7.13226 17.0153 -37.5844 24.2615 8.35999 -2.08801 43.4979 10.3782 16.6536 -11.2322 -50.4301 -24.3861 7.4415 13.2078 26.5224 -18.122 8.4021 4.56322 3.35488 -32.6202 -2.52786 1.68938 52.4236 20.8652 -3.13013 -16.0423 -0.149006 -1.31974e-009 8.75232e-006 -1.46399e-008 
-4.21036 93.9263 19.5415 2.01692 5.07237 -112.713 -7.77063 -18.4425 10.7677 -0.924234 48.2344 -8.41835 10.0472 -20.261 0.881593 0.0462048 0.00053089 0.662642 -11.6075 12.1274 3.69231 0.171997 10.0596 2.44379 9.75257 -16.0821 2.39641 -35.7391 7.55247 -14.4304 -33.5952 -23.4042 -26.0453 -7.79019 15.998 -36.3601 22.9278 8.5161 -1.74454 44.4789 10.7769 17.0014 -7.8268 -49.4922 -22.0419 7.88992 11.8404 25.2021 -15.631 8.66994 4.13979 4.064 -31.1363 -0.0574028 1.59288 50.3531 20.2592 -3.68102 -15.528 -0.179376 -1.31974e-009 8.75232e-006 -1.46399e-008 
-4.92779 95.2936 20.0956 2.66509 4.62856 -113.383 -6.89104 -19.7138 5.30979 -0.912779 45.8787 -8.9884 10.7268 -19.5228 0.891832 0.0462048 0.00053089 0.662642 -11.6726 11.0571 2.86085 1.01609 9.38252 1.59573 9.82463 -16.0887 3.96509 -35.9493 7.48044 -14.1719 -33.6076 -19.8669 -22.0487 -8.05965 14.95 -33.8058 21.6587 8.60884 -1.67944 45.2946 11.1532 17.3609 -3.66049 -47.2864 -20.2583 6.19225 14.816 25.2362 -8.76757 9.28242 3.59627 4.31989 -29.3305 2.1995 1.43286 46.4157 19.5196 -3.2485 -14.9727 -0.135513 -1.31974e-009 8.75232e-006 -1.46399e-008 
-5.62503 96.6862 20.6005 3.07209 4.22179 -113.525 -6.14151 -20.1298 0.136291 -0.886988 42.6236 -9.38353 10.9118 -18.8027 0.844319 0.0462048 0.00053089 0.662642 -11.381 9.98312 2.06667 1.61913 9.31495 0.842058 9.35373 -16.0729 4.89276 -36.0274 7.49652 -14.1762 -34.298 -15.8387 -19.0031 -8.23996 13.1736 -29.6373 21.0404 8.63225 -1.76636 45.9326 11.398 17.5403 0.343439 -44.9984 -19.3654 2.03666 22.0862 26.7623 -1.04558 9.88722 3.86693 3.78733 -26.978 2.37751 1.29163 41.5333 19.0271 -4.25643 -14.72 -0.192302 -1.31974e-009 8.75232e-006 -1.46399e-008 
-6.38794 97.7504 20.9922 3.09944 3.87674 -114.02 -5.25567 -20.1223 -2.72678 -0.852434 39.6235 -9.58645 11.1399 -18.1218 0.80251 0.0462048 0.00053089 0.662642 -10.9507 8.90175 1.66181 1.78118 9.31981 0.567595 8.67879 -15.405 5.22762 -36.125 7.57849 -14.3253 -35.2183 -11.1164 -16.587 -8.86424 9.74573 -24.0938 21.3763 8.6065 -1.79083 46.2058 11.4268 17.4744 4.56658 -43.0266 -18.8955 -3.18735 30.0479 29.0325 3.53515 10.283 4.87737 3.09179 -24.4239 2.0216 1.20033 37.2731 18.7131 -6.7065 -14.2696 -0.322555 -1.31974e-009 8.75232e-006 -1.46399e-008 
-7.09618 98.4839 21.2291 2.76126 3.39877 -114.902 -4.53752 -20.01 -3.40098 -0.853205 37.2388 -10.3089 11.41 -17.5225 0.76987 0.0462048 0.00053089 0.662642 -10.9684 7.83476 1.5665 1.73089 9.1837 0.611217 8.34633 -14.3791 5.36396 -36.1994 7.60667 -14.3588 -37.9121 -13.3693 -14.8135 -9.74178 11.71 -16.5127 22.5737 8.52653 -1.80729 46.3945 11.4161 17.3735 8.73769 -41.331 -18.5951 -6.15434 34.3773 29.6533 4.03333 10.3465 5.24959 2.57937 -22.0605 3.19489 1.14352 34.1978 18.3541 -8.61997 -14.0027 -0.417323 -1.31974e-009 8.75232e-006 -1.46399e-008 
-7.71796 98.9717 21.3325 2.18982 2.79818 -115.738 -4.26617 -19.8079 -3.34389 -0.887964 35.3274 -11.6096 11.5125 -17.0293 0.730691 0.0462048 0.00053089 0.662642 -11.7735 6.74946 1.54245 2.12297 9.20653 0.563993 8.33603 -13.5293 5.66272 -36.3639 7.56243 -14.1867 -44.2701 -33.9867 -14.6965 -13.2542 30.1366 -5.7237 24.3283 8.43173 -1.71991 46.9509 11.5989 17.4678 11.8233 -40.0344 -18.4888 -5.22742 34.0923 27.0825 2.20357 10.1692 4.91117 2.11926 -19.9056 5.32612 1.09038 31.7295 17.6451 -9.82494 -14.3271 -0.512112 -1.31974e-009 8.75232e-006 -1.46399e-008 
-8.32281 99.2239 21.373 1.58076 2.29737 -116.201 -4.35851 -19.5706 -3.60675 -0.918718 33.9361 -12.7032 11.4954 -16.6289 0.690122 0.0462048 0.00053089 0.662642 -13.1886 5.7121 1.45858 3.48269 9.46499 0.17884 8.26792 -13.0052 6.19465 -36.8233 7.52148 -13.901 -48.0915 -47.0397 -13.9054 -15.0259 38.2179 1.99849 26.0346 8.41363 -1.30537 47.6918 11.8757 17.6493 13.2108 -40.0663 -18.6903 -2.51722 32.273 22.7702 0.436293 10.0103 4.77436 1.612 -18.0496 6.87902 1.00728 29.7461 16.5757 -11.2871 -14.8035 -0.644271 -1.31974e-009 8.75232e-006 -1.46399e-008 
